<svg width="16" height="16" viewBox="0 0 16 16" fill="none" xmlns="http://www.w3.org/2000/svg">
<g clip-path="url(#clip0_106_41)">
<path d="M13.3222 3.32143C12.9989 2.99793 12.6149 2.74131 12.1924 2.56623C11.7698 2.39114 11.3169 2.30103 10.8595 2.30103C10.4022 2.30103 9.94925 2.39114 9.5267 2.56623C9.10415 2.74131 8.72023 2.99793 8.39688 3.32143L7.72582 3.99249L7.05477 3.32143C6.40163 2.66829 5.51578 2.30136 4.5921 2.30136C3.66843 2.30136 2.78258 2.66829 2.12944 3.32143C1.4763 3.97457 1.10938 4.86042 1.10938 5.78409C1.10937 6.70777 1.4763 7.59362 2.12944 8.24675L2.8005 8.91781L7.72582 13.8431L12.6511 8.91781L13.3222 8.24675C13.6457 7.92341 13.9023 7.53949 14.0774 7.11694C14.2525 6.69439 14.3426 6.24148 14.3426 5.78409C14.3426 5.3267 14.2525 4.8738 14.0774 4.45125C13.9023 4.02869 13.6457 3.64478 13.3222 3.32143V3.32143Z" stroke="#111111" stroke-width="1.6882" stroke-linecap="round" stroke-linejoin="round"/>
</g>
<defs>
<clipPath id="clip0_106_41">
<rect width="15.1938" height="15.1938" fill="white" transform="translate(0.128906 0.403076)"/>
</clipPath>
</defs>
</svg>
