<svg width="170" height="21" viewBox="0 0 170 21" fill="none" xmlns="http://www.w3.org/2000/svg">
<g opacity="0.7">
<path d="M13.506 7.26758C14.8492 7.26758 16.1374 7.80117 17.0872 8.75096C18.037 9.70076 18.5706 10.989 18.5706 12.3322V18.2409H15.1942V12.3322C15.1942 11.8844 15.0163 11.455 14.6997 11.1384C14.3831 10.8218 13.9537 10.644 13.506 10.644C13.0583 10.644 12.6289 10.8218 12.3123 11.1384C11.9957 11.455 11.8178 11.8844 11.8178 12.3322V18.2409H8.44141V12.3322C8.44141 10.989 8.975 9.70076 9.92479 8.75096C10.8746 7.80117 12.1628 7.26758 13.506 7.26758V7.26758Z" stroke="#EAEAF1" stroke-opacity="0.8" stroke-width="0.8441" stroke-linecap="round" stroke-linejoin="round"/>
<path d="M5.06585 8.11133H1.68945V18.2405H5.06585V8.11133Z" stroke="#EAEAF1" stroke-opacity="0.8" stroke-width="0.8441" stroke-linecap="round" stroke-linejoin="round"/>
<path d="M3.37765 5.57855C4.31002 5.57855 5.06585 4.82271 5.06585 3.89035C5.06585 2.95798 4.31002 2.20215 3.37765 2.20215C2.44529 2.20215 1.68945 2.95798 1.68945 3.89035C1.68945 4.82271 2.44529 5.57855 3.37765 5.57855Z" stroke="#EAEAF1" stroke-opacity="0.8" stroke-width="0.8441" stroke-linecap="round" stroke-linejoin="round"/>
<g clip-path="url(#clip0_14_518)">
<path d="M56.6718 3.04657C55.8634 3.61674 54.9685 4.05283 54.0213 4.33805C53.5129 3.75352 52.8373 3.33922 52.0858 3.15118C51.3343 2.96314 50.5432 3.01044 49.8194 3.28668C49.0957 3.56292 48.4742 4.05477 48.0391 4.69571C47.604 5.33664 47.3763 6.09575 47.3867 6.87035V7.71445C45.9033 7.75291 44.4334 7.42392 43.1079 6.75677C41.7825 6.08962 40.6426 5.10503 39.7898 3.89067C39.7898 3.89067 36.4134 11.4876 44.0103 14.864C42.2719 16.044 40.201 16.6357 38.1016 16.5522C45.6985 20.7727 54.9836 16.5522 54.9836 6.84502C54.9828 6.6099 54.9602 6.37536 54.916 6.14442C55.7775 5.29483 56.3855 4.22216 56.6718 3.04657V3.04657Z" stroke="#EAEAF1" stroke-opacity="0.8" stroke-width="0.8441" stroke-linecap="round" stroke-linejoin="round"/>
</g>
<path d="M89.7089 2.20215H87.1766C86.0573 2.20215 84.9838 2.64681 84.1923 3.4383C83.4008 4.2298 82.9561 5.3033 82.9561 6.42265V8.95495H80.4238V12.3313H82.9561V19.0841H86.3325V12.3313H88.8648L89.7089 8.95495H86.3325V6.42265C86.3325 6.19878 86.4215 5.98408 86.5798 5.82578C86.7381 5.66748 86.9528 5.57855 87.1766 5.57855H89.7089V2.20215Z" stroke="#EAEAF1" stroke-opacity="0.8" stroke-width="0.8441" stroke-linecap="round" stroke-linejoin="round"/>
<path d="M126.122 2.20215H117.681C115.351 2.20215 113.461 4.09173 113.461 6.42265V14.8636C113.461 17.1946 115.351 19.0841 117.681 19.0841H126.122C128.453 19.0841 130.343 17.1946 130.343 14.8636V6.42265C130.343 4.09173 128.453 2.20215 126.122 2.20215Z" stroke="#EAEAF1" stroke-opacity="0.8" stroke-width="0.8441" stroke-linecap="round" stroke-linejoin="round"/>
<path d="M125.279 10.1126C125.383 10.8151 125.263 11.5325 124.936 12.1629C124.609 12.7933 124.091 13.3045 123.457 13.6238C122.823 13.9431 122.104 14.0542 121.402 13.9414C120.701 13.8285 120.054 13.4975 119.551 12.9953C119.049 12.4931 118.718 11.8454 118.605 11.1443C118.493 10.4431 118.604 9.72421 118.923 9.08985C119.242 8.45549 119.753 7.93797 120.384 7.61088C121.014 7.28379 121.732 7.1638 122.434 7.26797C123.151 7.37423 123.814 7.70814 124.326 8.22037C124.839 8.73261 125.173 9.39601 125.279 10.1126Z" stroke="#EAEAF1" stroke-opacity="0.8" stroke-width="0.8441" stroke-linecap="round" stroke-linejoin="round"/>
<path d="M126.545 6.00195H126.554" stroke="#EAEAF1" stroke-opacity="0.8" stroke-width="0.8441" stroke-linecap="round" stroke-linejoin="round"/>
<g clip-path="url(#clip1_14_518)">
<path d="M168.057 5.93335C167.957 5.53275 167.753 5.1657 167.465 4.86928C167.178 4.57286 166.817 4.35757 166.42 4.24515C164.968 3.89063 159.161 3.89062 159.161 3.89062C159.161 3.89062 153.353 3.89063 151.901 4.27891C151.504 4.39133 151.143 4.60662 150.856 4.90304C150.568 5.19946 150.364 5.56651 150.264 5.96711C149.998 7.44053 149.868 8.93523 149.875 10.4324C149.866 11.9408 149.996 13.4469 150.264 14.9314C150.374 15.3196 150.583 15.6727 150.87 15.9566C151.157 16.2405 151.512 16.4456 151.901 16.5521C153.353 16.9404 159.161 16.9404 159.161 16.9404C159.161 16.9404 164.968 16.9404 166.42 16.5521C166.817 16.4397 167.178 16.2244 167.465 15.928C167.753 15.6316 167.957 15.2645 168.057 14.8639C168.321 13.4016 168.451 11.9183 168.446 10.4324C168.455 8.92395 168.325 7.41786 168.057 5.93335V5.93335Z" stroke="#EAEAF1" stroke-opacity="0.8" stroke-width="0.8441" stroke-linecap="round" stroke-linejoin="round"/>
<path d="M157.262 13.1942L162.115 10.434L157.262 7.67383V13.1942Z" stroke="#EAEAF1" stroke-opacity="0.8" stroke-width="0.8441" stroke-linecap="round" stroke-linejoin="round"/>
</g>
</g>
<defs>
<clipPath id="clip0_14_518">
<rect width="20.2584" height="20.2584" fill="white" transform="translate(37.2578 0.514648)"/>
</clipPath>
<clipPath id="clip1_14_518">
<rect width="20.2584" height="20.2584" fill="white" transform="translate(149.031 0.514648)"/>
</clipPath>
</defs>
</svg>
